0
SECTION
2
HEADER
9
$ACADVER
1
AC1006
9
$INSBASE
10
0.00
20
0.00
9
$EXTMIN
10
-503.914986
20
-771.209552
9
$EXTMAX
10
1830.088465
20
507.228191
9
$LIMMIN
10
-503.914986
20
-771.209552
9
$LIMMAX
10
1830.088465
20
507.228191
9
$PDMODE
70
34
0
ENDSEC
0
SECTION
2
ENTITIES
0
POLYLINE
8
SAMPLE_AREA_2
66
1
10
0.0
20
0.0
30
0.0
70
1
0
VERTEX
8
SAMPLE_AREA_2
10
-56.700558
20
64.542805
30
0.0
0
VERTEX
8
SAMPLE_AREA_2
10
-54.433228
20
66.543390
30
0.0
0
VERTEX
8
SAMPLE_AREA_2
10
-52.732731
20
67.877113
30
0.0
0
VERTEX
8
SAMPLE_AREA_2
10
-51.165607
20
68.877405
30
0.0
0
VERTEX
8
SAMPLE_AREA_2
10
-48.198073
20
70.844647
30
0.0
0
VERTEX
8
SAMPLE_AREA_2
10
-45.697342
20
72.611830
30
0.0
0
VERTEX
8
SAMPLE_AREA_2
10
-42.263005
20
74.512385
30
0.0
0
VERTEX
8
SAMPLE_AREA_2
10
-38.261836
20
76.612999
30
0.0
0
VERTEX
8
SAMPLE_AREA_2
10
-35.961164
20
77.579948
30
0.0
0
VERTEX
8
SAMPLE_AREA_2
10
-32.193396
20
79.580533
30
0.0
0
VERTEX
8
SAMPLE_AREA_2
10
-29.459264
20
80.380767
30
0.0
0
VERTEX
8
SAMPLE_AREA_2
10
-25.057978
20
82.047920
30
0.0
0
VERTEX
8
SAMPLE_AREA_2
10
-22.423875
20
82.981527
30
0.0
0
VERTEX
8
SAMPLE_AREA_2
10
-19.674924
20
84.067029
30
0.0
0
VERTEX
8
SAMPLE_AREA_2
10
-12.858117
20
85.193284
30
0.0
0
VERTEX
8
SAMPLE_AREA_2
10
-6.219140
20
86.438092
30
0.0
0
VERTEX
8
SAMPLE_AREA_2
10
13.460685
20
86.971581
30
0.0
0
VERTEX
8
SAMPLE_AREA_2
10
15.357536
20
85.311837
30
0.0
0
VERTEX
8
SAMPLE_AREA_2
10
22.944938
20
85.548943
30
0.0
0
VERTEX
8
SAMPLE_AREA_2
10
28.102000
20
83.948476
30
0.0
0
VERTEX
8
SAMPLE_AREA_2
10
34.088935
20
82.288731
30
0.0
0
VERTEX
8
SAMPLE_AREA_2
10
37.764083
20
80.984647
30
0.0
0
VERTEX
8
SAMPLE_AREA_2
10
39.720210
20
79.562009
30
0.0
0
VERTEX
8
SAMPLE_AREA_2
10
42.209826
20
78.257924
30
0.0
0
VERTEX
8
SAMPLE_AREA_2
10
46.596293
20
76.776010
30
0.0
0
VERTEX
8
SAMPLE_AREA_2
10
52.346122
20
72.923032
30
0.0
0
VERTEX
8
SAMPLE_AREA_2
10
56.910418
20
69.544267
30
0.0
0
VERTEX
8
SAMPLE_AREA_2
10
60.763396
20
65.869119
30
0.0
0
VERTEX
8
SAMPLE_AREA_2
10
64.142161
20
62.846013
30
0.0
0
VERTEX
8
SAMPLE_AREA_2
10
70.781138
20
55.377164
30
0.0
0
VERTEX
8
SAMPLE_AREA_2
10
73.626414
20
52.235505
30
0.0
0
VERTEX
8
SAMPLE_AREA_2
10
74.219180
20
51.049974
30
0.0
0
VERTEX
8
SAMPLE_AREA_2
10
135.629717
20
51.939122
30
0.0
0
VERTEX
8
SAMPLE_AREA_2
10
163.845369
20
53.124654
30
0.0
0
VERTEX
8
SAMPLE_AREA_2
10
183.584471
20
53.361760
30
0.0
0
VERTEX
8
SAMPLE_AREA_2
10
195.024851
20
54.902951
30
0.0
0
VERTEX
8
SAMPLE_AREA_2
10
208.895571
20
56.325589
30
0.0
0
VERTEX
8
SAMPLE_AREA_2
10
222.232801
20
57.570397
30
0.0
0
VERTEX
8
SAMPLE_AREA_2
10
242.446115
20
58.578099
30
0.0
0
VERTEX
8
SAMPLE_AREA_2
10
267.816492
20
60.000737
30
0.0
0
VERTEX
8
SAMPLE_AREA_2
10
268.646364
20
61.838311
30
0.0
0
VERTEX
8
SAMPLE_AREA_2
10
282.279977
20
62.193971
30
0.0
0
VERTEX
8
SAMPLE_AREA_2
10
285.777295
20
62.786737
30
0.0
0
VERTEX
8
SAMPLE_AREA_2
10
295.202272
20
62.786737
30
0.0
0
VERTEX
8
SAMPLE_AREA_2
10
355.486554
20
64.209374
30
0.0
0
VERTEX
8
SAMPLE_AREA_2
10
406.185594
20
63.996418
30
0.0
0
VERTEX
8
SAMPLE_AREA_2
10
485.010273
20
64.136925
30
0.0
0
VERTEX
8
SAMPLE_AREA_2
10
589.500980
20
63.637343
30
0.0
0
VERTEX
8
SAMPLE_AREA_2
10
653.447482
20
62.638179
30
0.0
0
VERTEX
8
SAMPLE_AREA_2
10
692.165090
20
62.638179
30
0.0
0
VERTEX
8
SAMPLE_AREA_2
10
697.910284
20
61.389224
30
0.0
0
VERTEX
8
SAMPLE_AREA_2
10
730.383116
20
61.389224
30
0.0
0
VERTEX
8
SAMPLE_AREA_2
10
735.129146
20
59.890478
30
0.0
0
VERTEX
8
SAMPLE_AREA_2
10
769.600307
20
60.140269
30
0.0
0
VERTEX
8
SAMPLE_AREA_2
10
783.630805
20
58.583710
30
0.0
0
VERTEX
8
SAMPLE_AREA_2
10
790.921825
20
58.642986
30
0.0
0
VERTEX
8
SAMPLE_AREA_2
10
816.232924
20
57.694561
30
0.0
0
VERTEX
8
SAMPLE_AREA_2
10
834.490111
20
57.338902
30
0.0
0
VERTEX
8
SAMPLE_AREA_2
10
839.647174
20
55.856987
30
0.0
0
VERTEX
8
SAMPLE_AREA_2
10
858.437850
20
55.619881
30
0.0
0
VERTEX
8
SAMPLE_AREA_2
10
865.728869
20
54.730732
30
0.0
0
VERTEX
8
SAMPLE_AREA_2
10
872.723506
20
54.197243
30
0.0
0
VERTEX
8
SAMPLE_AREA_2
10
888.728182
20
53.070988
30
0.0
0
VERTEX
8
SAMPLE_AREA_2
10
897.501116
20
52.952435
30
0.0
0
VERTEX
8
SAMPLE_AREA_2
10
904.436476
20
51.766903
30
0.0
0
VERTEX
8
SAMPLE_AREA_2
10
939.409659
20
50.166435
30
0.0
0
VERTEX
8
SAMPLE_AREA_2
10
946.937784
20
49.455116
30
0.0
0
VERTEX
8
SAMPLE_AREA_2
10
954.050974
20
48.803074
30
0.0
0
VERTEX
8
SAMPLE_AREA_2
10
963.061014
20
47.321160
30
0.0
0
VERTEX
8
SAMPLE_AREA_2
10
966.854715
20
47.202606
30
0.0
0
VERTEX
8
SAMPLE_AREA_2
10
972.841650
20
46.432011
30
0.0
0
VERTEX
8
SAMPLE_AREA_2
10
977.287393
20
45.957798
30
0.0
0
VERTEX
8
SAMPLE_AREA_2
10
978.295095
20
45.009373
30
0.0
0
VERTEX
8
SAMPLE_AREA_2
10
982.740839
20
44.416607
30
0.0
0
VERTEX
8
SAMPLE_AREA_2
10
986.653093
20
43.764565
30
0.0
0
VERTEX
8
SAMPLE_AREA_2
10
987.660795
20
42.460480
30
0.0
0
VERTEX
8
SAMPLE_AREA_2
10
992.580751
20
40.860012
30
0.0
0
VERTEX
8
SAMPLE_AREA_2
10
997.619260
20
39.318821
30
0.0
0
VERTEX
8
SAMPLE_AREA_2
10
1001.531515
20
38.192566
30
0.0
0
VERTEX
8
SAMPLE_AREA_2
10
1005.562322
20
36.354992
30
0.0
0
VERTEX
8
SAMPLE_AREA_2
10
1013.505384
20
32.205632
30
0.0
0
VERTEX
8
SAMPLE_AREA_2
10
1023.404573
20
26.277974
30
0.0
0
VERTEX
8
SAMPLE_AREA_2
10
1030.043550
20
22.780655
30
0.0
0
VERTEX
8
SAMPLE_AREA_2
10
1043.433471
20
0.734158
30
0.0
0
VERTEX
8
SAMPLE_AREA_2
10
1034.089725
20
-16.899527
30
0.0
0
VERTEX
8
SAMPLE_AREA_2
10
1017.334212
20
-29.545197
30
0.0
0
VERTEX
8
SAMPLE_AREA_2
10
1003.107833
20
-35.341130
30
0.0
0
VERTEX
8
SAMPLE_AREA_2
10
982.479583
20
-44.114063
30
0.0
0
VERTEX
8
SAMPLE_AREA_2
10
964.064325
20
-45.536701
30
0.0
0
VERTEX
8
SAMPLE_AREA_2
10
947.387847
20
-47.196446
30
0.0
0
VERTEX
8
SAMPLE_AREA_2
10
933.003397
20
-48.381977
30
0.0
0
VERTEX
8
SAMPLE_AREA_2
10
918.065699
20
-49.488473
30
0.0
0
VERTEX
8
SAMPLE_AREA_2
10
911.268651
20
-50.674005
30
0.0
0
VERTEX
8
SAMPLE_AREA_2
10
896.489023
20
-50.990147
30
0.0
0
VERTEX
8
SAMPLE_AREA_2
10
885.028885
20
-52.017608
30
0.0
0
VERTEX
8
SAMPLE_AREA_2
10
879.417368
20
-51.859537
30
0.0
0
VERTEX
8
SAMPLE_AREA_2
10
860.844040
20
-53.282175
30
0.0
0
VERTEX
8
SAMPLE_AREA_2
10
847.091873
20
-54.546742
30
0.0
0
VERTEX
8
SAMPLE_AREA_2
10
813.580846
20
-55.969380
30
0.0
0
VERTEX
8
SAMPLE_AREA_2
10
772.798559
20
-57.550088
30
0.0
0
VERTEX
8
SAMPLE_AREA_2
10
740.789206
20
-58.893691
30
0.0
0
VERTEX
8
SAMPLE_AREA_2
10
671.949337
20
-60.790541
30
0.0
0
VERTEX
8
SAMPLE_AREA_2
10
667.128175
20
-61.264754
30
0.0
0
VERTEX
8
SAMPLE_AREA_2
10
612.356615
20
-61.897038
30
0.0
0
VERTEX
8
SAMPLE_AREA_2
10
511.099043
20
-62.886444
30
0.0
0
VERTEX
8
SAMPLE_AREA_2
10
331.998880
20
-61.762385
30
0.0
0
VERTEX
8
SAMPLE_AREA_2
10
273.173094
20
-59.139579
30
0.0
0
VERTEX
8
SAMPLE_AREA_2
10
255.375484
20
-57.640833
30
0.0
0
VERTEX
8
SAMPLE_AREA_2
10
240.950052
20
-56.142087
30
0.0
0
VERTEX
8
SAMPLE_AREA_2
10
228.023367
20
-54.643340
30
0.0
0
VERTEX
8
SAMPLE_AREA_2
10
212.848562
20
-53.519281
30
0.0
0
VERTEX
8
SAMPLE_AREA_2
10
194.114236
20
-52.582565
30
0.0
0
VERTEX
8
SAMPLE_AREA_2
10
175.567252
20
-50.709132
30
0.0
0
VERTEX
8
SAMPLE_AREA_2
10
153.273404
20
-49.585072
30
0.0
0
VERTEX
8
SAMPLE_AREA_2
10
119.738959
20
-48.273669
30
0.0
0
VERTEX
8
SAMPLE_AREA_2
10
71.966426
20
-48.086326
30
0.0
0
VERTEX
8
SAMPLE_AREA_2
10
69.343620
20
-51.083818
30
0.0
0
VERTEX
8
SAMPLE_AREA_2
10
59.789114
20
-61.762385
30
0.0
0
VERTEX
8
SAMPLE_AREA_2
10
53.419442
20
-66.633310
30
0.0
0
VERTEX
8
SAMPLE_AREA_2
10
48.173831
20
-70.005488
30
0.0
0
VERTEX
8
SAMPLE_AREA_2
10
43.115563
20
-72.815637
30
0.0
0
VERTEX
8
SAMPLE_AREA_2
10
39.181354
20
-75.063757
30
0.0
0
VERTEX
8
SAMPLE_AREA_2
10
35.996519
20
-76.749846
30
0.0
0
VERTEX
8
SAMPLE_AREA_2
10
31.312937
20
-78.810622
30
0.0
0
VERTEX
8
SAMPLE_AREA_2
10
25.879982
20
-80.309368
30
0.0
0
VERTEX
8
SAMPLE_AREA_2
10
18.573595
20
-81.433428
30
0.0
0
VERTEX
8
SAMPLE_AREA_2
10
14.077357
20
-83.119517
30
0.0
0
VERTEX
8
SAMPLE_AREA_2
10
12.765954
20
-83.494204
30
0.0
0
VERTEX
8
SAMPLE_AREA_2
10
-15.148193
20
-83.868890
30
0.0
0
VERTEX
8
SAMPLE_AREA_2
10
-21.752043
20
-82.042293
30
0.0
0
VERTEX
8
SAMPLE_AREA_2
10
-27.512849
20
-80.075189
30
0.0
0
VERTEX
8
SAMPLE_AREA_2
10
-38.050907
20
-76.281488
30
0.0
0
VERTEX
8
SAMPLE_AREA_2
10
-49.010488
20
-69.256115
30
0.0
0
VERTEX
8
SAMPLE_AREA_2
10
-61.094129
20
-60.263638
30
0.0
0
VERTEX
8
SAMPLE_AREA_2
10
-68.541024
20
-53.659788
30
0.0
0
VERTEX
8
SAMPLE_AREA_2
10
-72.053710
20
-45.229341
30
0.0
0
VERTEX
8
SAMPLE_AREA_2
10
-78.095531
20
-34.129253
30
0.0
0
VERTEX
8
SAMPLE_AREA_2
10
-80.484157
20
-23.450687
30
0.0
0
VERTEX
8
SAMPLE_AREA_2
10
-82.310754
20
-14.036687
30
0.0
0
VERTEX
8
SAMPLE_AREA_2
10
-84.839888
20
-3.498629
30
0.0
0
VERTEX
8
SAMPLE_AREA_2
10
-83.996844
20
4.088774
30
0.0
0
VERTEX
8
SAMPLE_AREA_2
10
-80.343650
20
21.371190
30
0.0
0
VERTEX
8
SAMPLE_AREA_2
10
-76.549949
20
36.686502
30
0.0
0
VERTEX
8
SAMPLE_AREA_2
10
-70.508128
20
47.786591
30
0.0
0
VERTEX
8
SAMPLE_AREA_2
10
-56.700558
20
64.542805
30
0.0
0
SEQEND
0
POLYLINE
8
SAMPLE_AREA_3
66
1
10
0.0
20
0.0
30
0.0
70
1
0
VERTEX
8
SAMPLE_AREA_3
10
-81.292075
20
0.277509
30
0.0
0
VERTEX
8
SAMPLE_AREA_3
10
-78.367764
20
14.978101
30
0.0
0
VERTEX
8
SAMPLE_AREA_3
10
-74.811169
20
24.225247
30
0.0
0
VERTEX
8
SAMPLE_AREA_3
10
-70.859397
20
35.685386
30
0.0
0
VERTEX
8
SAMPLE_AREA_3
10
-66.986660
20
44.379285
30
0.0
0
VERTEX
8
SAMPLE_AREA_3
10
-59.083116
20
54.258715
30
0.0
0
VERTEX
8
SAMPLE_AREA_3
10
-49.203686
20
63.980074
30
0.0
0
VERTEX
8
SAMPLE_AREA_3
10
-40.825930
20
69.986768
30
0.0
0
VERTEX
8
SAMPLE_AREA_3
10
-28.891578
20
75.440213
30
0.0
0
VERTEX
8
SAMPLE_AREA_3
10
-18.300829
20
78.917772
30
0.0
0
VERTEX
8
SAMPLE_AREA_3
10
-7.314903
20
80.814623
30
0.0
0
VERTEX
8
SAMPLE_AREA_3
10
4.461378
20
81.367871
30
0.0
0
VERTEX
8
SAMPLE_AREA_3
10
17.265119
20
81.051729
30
0.0
0
VERTEX
8
SAMPLE_AREA_3
10
25.959018
20
79.233914
30
0.0
0
VERTEX
8
SAMPLE_AREA_3
10
35.522306
20
75.993461
30
0.0
0
VERTEX
8
SAMPLE_AREA_3
10
43.741992
20
71.409406
30
0.0
0
VERTEX
8
SAMPLE_AREA_3
10
53.858528
20
64.138145
30
0.0
0
VERTEX
8
SAMPLE_AREA_3
10
60.576541
20
56.866884
30
0.0
0
VERTEX
8
SAMPLE_AREA_3
10
69.349475
20
47.698773
30
0.0
0
VERTEX
8
SAMPLE_AREA_3
10
75.514239
20
38.451627
30
0.0
0
VERTEX
8
SAMPLE_AREA_3
10
78.359515
20
31.259402
30
0.0
0
VERTEX
8
SAMPLE_AREA_3
10
105.626742
20
26.675346
30
0.0
0
VERTEX
8
SAMPLE_AREA_3
10
113.688357
20
25.647885
30
0.0
0
VERTEX
8
SAMPLE_AREA_3
10
123.883929
20
23.988141
30
0.0
0
VERTEX
8
SAMPLE_AREA_3
10
136.292493
20
20.352511
30
0.0
0
VERTEX
8
SAMPLE_AREA_3
10
140.876548
20
19.325050
30
0.0
0
VERTEX
8
SAMPLE_AREA_3
10
149.807553
20
17.033022
30
0.0
0
VERTEX
8
SAMPLE_AREA_3
10
161.188657
20
12.132825
30
0.0
0
VERTEX
8
SAMPLE_AREA_3
10
168.538953
20
9.129478
30
0.0
0
VERTEX
8
SAMPLE_AREA_3
10
173.518185
20
4.545423
30
0.0
0
VERTEX
8
SAMPLE_AREA_3
10
175.573107
20
0.593651
30
0.0
0
VERTEX
8
SAMPLE_AREA_3
10
172.648795
20
-3.990405
30
0.0
0
VERTEX
8
SAMPLE_AREA_3
10
164.903322
20
-7.230858
30
0.0
0
VERTEX
8
SAMPLE_AREA_3
10
153.206077
20
-13.158516
30
0.0
0
VERTEX
8
SAMPLE_AREA_3
10
147.278419
20
-14.976331
30
0.0
0
VERTEX
8
SAMPLE_AREA_3
10
138.031272
20
-17.584501
30
0.0
0
VERTEX
8
SAMPLE_AREA_3
10
130.048693
20
-19.639422
30
0.0
0
VERTEX
8
SAMPLE_AREA_3
10
121.038653
20
-21.141095
30
0.0
0
VERTEX
8
SAMPLE_AREA_3
10
112.028613
20
-23.512159
30
0.0
0
VERTEX
8
SAMPLE_AREA_3
10
102.702431
20
-24.934797
30
0.0
0
VERTEX
8
SAMPLE_AREA_3
10
94.403709
20
-26.357434
30
0.0
0
VERTEX
8
SAMPLE_AREA_3
10
77.885302
20
-30.230171
30
0.0
0
VERTEX
8
SAMPLE_AREA_3
10
75.988452
20
-34.260979
30
0.0
0
VERTEX
8
SAMPLE_AREA_3
10
73.064140
20
-40.109601
30
0.0
0
VERTEX
8
SAMPLE_AREA_3
10
69.191404
20
-45.088834
30
0.0
0
VERTEX
8
SAMPLE_AREA_3
10
63.896029
20
-50.463244
30
0.0
0
VERTEX
8
SAMPLE_AREA_3
10
59.311974
20
-55.047299
30
0.0
0
VERTEX
8
SAMPLE_AREA_3
10
54.253705
20
-59.394249
30
0.0
0
VERTEX
8
SAMPLE_AREA_3
10
44.769453
20
-66.744545
30
0.0
0
VERTEX
8
SAMPLE_AREA_3
10
34.573881
20
-72.830274
30
0.0
0
VERTEX
8
SAMPLE_AREA_3
10
25.247699
20
-75.833620
30
0.0
0
VERTEX
8
SAMPLE_AREA_3
10
17.344155
20
-78.125648
30
0.0
0
VERTEX
8
SAMPLE_AREA_3
10
9.578923
20
-79.548286
30
0.0
0
VERTEX
8
SAMPLE_AREA_3
10
-10.160179
20
-79.666839
30
0.0
0
VERTEX
8
SAMPLE_AREA_3
10
-16.976985
20
-78.777690
30
0.0
0
VERTEX
8
SAMPLE_AREA_3
10
-24.090175
20
-76.643734
30
0.0
0
VERTEX
8
SAMPLE_AREA_3
10
-31.736854
20
-74.450500
30
0.0
0
VERTEX
8
SAMPLE_AREA_3
10
-39.561362
20
-71.190288
30
0.0
0
VERTEX
8
SAMPLE_AREA_3
10
-45.903957
20
-67.278034
30
0.0
0
VERTEX
8
SAMPLE_AREA_3
10
-53.017146
20
-61.824588
30
0.0
0
VERTEX
8
SAMPLE_AREA_3
10
-58.292762
20
-57.023185
30
0.0
0
VERTEX
8
SAMPLE_AREA_3
10
-64.220420
20
-50.739868
30
0.0
0
VERTEX
8
SAMPLE_AREA_3
10
-68.666163
20
-44.515827
30
0.0
0
VERTEX
8
SAMPLE_AREA_3
10
-72.815524
20
-37.224808
30
0.0
0
VERTEX
8
SAMPLE_AREA_3
10
-74.771651
20
-32.601234
30
0.0
0
VERTEX
8
SAMPLE_AREA_3
10
-76.372119
20
-23.946854
30
0.0
0
VERTEX
8
SAMPLE_AREA_3
10
-80.106543
20
-8.416389
30
0.0
0
SEQEND
0
ENDSEC
0
EOF
